<?xml version="1.0" standalone="no"?>
<!DOCTYPE svg PUBLIC "-//W3C//DTD SVG 20010904//EN"
 "http://www.w3.org/TR/2001/REC-SVG-20010904/DTD/svg10.dtd">
<svg version="1.0" xmlns="http://www.w3.org/2000/svg"
 width="85.000000pt" height="110.000000pt" viewBox="0 0 85.000000 110.000000"
 preserveAspectRatio="xMidYMid meet">
<metadata>
Created by potrace 1.12, written by Peter Selinger 2001-2015
</metadata>
<g transform="translate(0.000000,110.000000) scale(0.100000,-0.100000)"
fill="#000000" stroke="none">
<path d="M318 808 c-42 -62 -114 -160 -160 -217 l-84 -105 89 -110 c49 -61
120 -158 159 -216 38 -58 72 -103 76 -100 4 3 36 50 73 105 36 55 105 149 152
208 48 59 87 110 87 112 0 3 -38 53 -84 111 -47 59 -115 152 -152 208 -37 55
-70 104 -74 109 -3 4 -40 -43 -82 -105z"/>
</g>
</svg>
